<?xml version="1.0" standalone="no"?>
<!DOCTYPE svg PUBLIC "-//W3C//DTD SVG 20010904//EN"
 "http://www.w3.org/TR/2001/REC-SVG-20010904/DTD/svg10.dtd">
<svg version="1.0" xmlns="http://www.w3.org/2000/svg"
 width="458.000000pt" height="103.000000pt" viewBox="0 0 458.000000 103.000000"
 preserveAspectRatio="xMidYMid meet">

<g transform="translate(0.000000,103.000000) scale(0.100000,-0.100000)"
fill="#000000" stroke="none">
<path d="M330 1013 c-60 -10 -215 -54 -228 -65 -22 -19 -94 -169 -88 -184 8
-21 32 -17 118 16 78 30 207 65 214 57 3 -2 -25 -47 -61 -100 -60 -88 -69 -97
-115 -112 -96 -32 -137 -100 -90 -150 l21 -22 -41 -83 c-45 -95 -53 -153 -21
-170 11 -5 27 -7 36 -4 25 10 95 120 95 149 0 15 7 39 16 53 15 26 20 27 97
28 253 4 444 142 464 336 12 116 -49 210 -156 242 -51 15 -196 20 -261 9z
m298 -199 c64 -41 -20 -167 -143 -213 -62 -23 -195 -39 -195 -23 0 6 20 14 43
17 24 4 49 10 56 15 20 12 8 45 -17 48 -12 2 -22 6 -22 8 0 3 18 32 41 66 23
33 45 75 50 92 l9 33 78 -14 c42 -8 87 -21 100 -29z"/>
<path d="M1345 985 c-152 -28 -219 -65 -255 -140 -25 -52 -21 -90 11 -100 12
-4 64 -4 115 0 90 7 94 8 94 31 0 18 7 25 28 30 15 3 33 7 40 10 6 2 12 1 12
-1 0 -3 -30 -46 -67 -95 -62 -82 -72 -91 -108 -97 -73 -11 -142 -108 -100
-139 16 -12 14 -18 -28 -86 -72 -115 -79 -150 -35 -161 36 -10 76 20 103 76
13 28 36 66 49 82 l25 30 216 -110 c119 -60 220 -111 225 -113 40 -15 58 140
20 178 -23 23 -113 70 -235 121 -100 42 -107 35 55 60 236 36 343 117 344 261
1 63 -19 100 -71 131 -76 44 -290 60 -438 32z m357 -165 c21 -6 40 -15 44 -21
9 -15 -26 -49 -72 -69 -47 -21 -274 -83 -280 -77 -2 2 11 24 29 48 19 24 44
63 56 87 l21 42 83 0 c45 0 99 -5 119 -10z"/>
<path d="M4454 868 c9 -185 10 -188 56 -188 26 0 40 5 44 17 4 9 10 81 13 160
l6 143 -63 0 -63 0 7 -132z"/>
<path d="M3702 963 c-31 -46 -88 -154 -122 -233 -33 -75 -116 -193 -145 -204
-8 -3 -20 -17 -25 -31 -5 -14 -14 -25 -19 -25 -6 0 -4 15 5 35 16 39 19 121 4
130 -5 3 -10 15 -10 25 0 51 -80 66 -155 30 -53 -26 -129 -102 -155 -155 -60
-124 27 -281 136 -245 20 7 50 25 68 40 17 15 50 33 73 39 23 6 45 16 48 21 4
6 10 8 14 5 5 -2 -5 -41 -20 -85 -51 -143 -46 -249 12 -293 26 -18 28 -18 63
-2 82 39 168 170 181 276 6 47 12 61 36 78 l29 22 0 -30 c0 -44 19 -78 50 -91
38 -16 97 11 165 72 l50 46 21 -42 c26 -53 74 -79 129 -70 57 9 86 26 160 95
58 55 65 65 65 100 0 22 -3 39 -6 39 -3 0 -27 -17 -53 -39 -52 -43 -118 -81
-141 -81 -9 0 -21 5 -28 12 -24 24 -11 43 49 71 135 63 205 171 149 227 -62
62 -253 -38 -319 -167 -23 -46 -114 -123 -145 -123 -17 0 -1 67 30 128 36 69
38 71 78 74 39 3 44 7 88 73 28 42 42 71 35 73 -38 11 -39 12 -18 38 26 34 26
50 0 64 -34 19 -76 2 -115 -45 -32 -37 -42 -43 -85 -47 -56 -6 -90 -31 -121
-91 -28 -56 -19 -70 38 -61 46 7 47 6 33 -14 -14 -19 -132 -130 -172 -161 -16
-12 -21 -11 -47 14 -17 16 -30 34 -30 40 0 7 37 75 82 151 100 171 119 214
121 268 3 73 -44 102 -81 49z m508 -378 c-7 -9 -27 -26 -44 -38 -28 -19 -30
-20 -17 -2 20 27 64 65 70 60 2 -3 -2 -12 -9 -20z m-961 -80 c-6 -21 -9 -49
-6 -61 6 -33 -41 -64 -70 -46 -22 14 5 89 45 122 20 16 37 28 39 27 1 -2 -2
-20 -8 -42z m275 -185 c21 -8 26 -16 26 -42 -1 -39 -20 -97 -45 -134 -16 -25
-18 -26 -28 -9 -14 26 2 195 18 195 2 0 15 -4 29 -10z"/>
<path d="M2778 954 c-182 -39 -258 -108 -274 -248 -6 -51 -5 -57 22 -84 33
-33 116 -66 216 -87 38 -8 79 -20 91 -26 28 -14 57 -40 57 -49 0 -17 -106 -52
-183 -60 -126 -15 -200 -13 -194 4 8 21 -18 39 -45 31 -79 -22 -118 -63 -120
-125 -2 -65 71 -95 232 -93 277 3 455 114 426 267 -13 66 -106 125 -281 177
-101 30 -114 49 -59 81 40 23 176 58 226 58 l39 0 -20 -26 c-23 -29 -27 -49
-11 -59 13 -8 200 82 217 104 19 25 27 80 15 106 -7 15 -25 28 -49 34 -53 15
-225 12 -305 -5z"/>
</g>
</svg>
